<svg width="75" height="44" viewBox="0 0 75 44" fill="none" xmlns="http://www.w3.org/2000/svg">
<path fill-rule="evenodd" clip-rule="evenodd" d="M60.0023 8.94889C58.7056 13.7407 57.4146 18.5339 56.1501 23.3343C55.5177 25.7341 54.8969 28.1356 54.1688 30.5102C53.4617 32.8174 52.5931 35.2799 51.3272 37.3753C50.0068 39.5621 48.297 41.2696 45.9308 42.3628C44.9847 42.7995 44.0153 43.0991 42.9983 43.3136C41.5552 43.6176 40.1055 43.7427 38.6391 43.8252C35.0077 44.0287 27.304 43.9984 23.6736 43.9984L25.8993 35.7953C27.5841 35.7953 29.2685 35.8011 30.9529 35.7548C32.5784 35.7098 34.367 35.6232 35.9678 35.2468C37.7208 34.8344 39.0436 34.1267 40.2022 32.7083C41.2576 31.4163 41.9672 29.8043 42.5485 28.2839C43.6105 25.5074 44.6978 21.532 45.4642 18.673C46.3311 15.4366 47.1644 12.1921 48.0043 8.94889H60.0023ZM75 8.94882L68.5255 32.8125H56.5278L63.0019 8.94882H75ZM35.4338 0H47.4319C46.1749 4.6582 44.9196 9.31674 43.6483 13.9712C42.7622 17.2137 41.8822 20.4576 40.9204 23.6793C40.5008 25.0837 40.0819 26.4841 39.5321 27.8476C39.0903 28.9429 38.5963 29.9175 37.6832 30.7359C37.001 31.3472 36.2572 31.7272 35.391 31.9982C34.2766 32.347 33.1502 32.4748 31.9988 32.5685C30.3428 32.7035 28.6865 32.738 27.0278 32.7646C23.213 32.8256 16.2854 32.817 12.4705 32.8007C11.0998 32.7945 9.72897 32.7864 8.35818 32.7615C7.36446 32.7438 6.37176 32.7192 5.37941 32.6575C4.71681 32.6159 4.05936 32.5607 3.40464 32.4407C2.9604 32.3596 2.53261 32.2505 2.11579 32.0695C0.742944 31.4729 0.0433266 30.2805 0.00253556 28.8283C-0.0211163 27.9973 0.124223 27.2057 0.291501 26.4019C0.529048 25.2634 0.824869 24.1405 1.11795 23.0162C1.67737 20.8683 2.70126 16.9052 3.49925 14.819C4.12449 13.1841 4.95025 11.557 6.51916 10.5221C7.39634 9.94363 8.31808 9.63615 9.33443 9.43264C10.0879 9.28197 10.8451 9.2022 11.6091 9.14562C12.8887 9.05119 14.1694 9.02153 15.4514 8.99904C17.2733 8.96733 19.0951 8.96052 20.917 8.95506L25.4618 8.94893H30.0062L28.3876 14.9148C25.6865 14.9148 22.9861 14.9073 20.2849 14.9229C19.4965 14.9277 18.7092 14.9219 17.9215 14.9731C17.6417 14.9911 17.3685 15.0092 17.0981 15.1033C16.7423 15.226 16.5664 15.4482 16.4101 15.7673C16.1815 16.2343 16.0495 16.7269 15.9038 17.2198C15.6814 17.9725 15.4754 18.7296 15.269 19.4871C14.9512 20.6539 14.6335 21.8208 14.3318 22.992C14.2204 23.4257 14.1111 23.8593 14.0172 24.297C13.951 24.6038 13.8914 24.9095 13.8619 25.2225C13.8297 25.5647 13.8197 25.9758 14.0281 26.2935C14.24 26.616 14.5982 26.691 14.9324 26.7391C15.3101 26.7939 15.6886 26.8059 16.0684 26.8171C16.6902 26.8359 17.312 26.8386 17.9338 26.8417C19.635 26.8498 21.3362 26.8502 23.0375 26.8396C23.8214 26.8348 24.6047 26.8294 25.3879 26.798C25.9275 26.7766 26.4601 26.7582 26.9915 26.6303C27.3953 26.5332 27.711 26.3804 27.9842 26.0522C28.1689 25.8299 28.2896 25.5835 28.3999 25.3217C28.6742 24.6726 28.8658 24.0007 29.0656 23.3292C29.8324 20.7531 30.5231 18.1573 31.2289 15.5645L33.3368 7.78378L35.4338 0Z" fill="white" fill-opacity="0.85"/>
</svg>
